# xmcd
#
# Track frame offsets: 
#        150
#        11192
#        22253
#        33301
#        36534
#        45851
#        61096
#        72522
#        82609
#        92164
#        103905
#        109121
#        119073
#        130813
#        142975
#        156884
#        168890
#        181705
#        193616
#        205709
#        215478
#        227163
#        238440
#        255228
#        264549
#
# Disc length: 3969 seconds
#
# Revision: 0
# Processed by: cddbd v1.5.2PL0 Copyright (c) Steve Scherf et al.
# Submitted via: ExactAudioCopy v0.95b3
#
DISCID=5e0f7f19
DTITLE=The Monkees  - Headquarters (Deluxe Edition) [CD2]  FLAC
DYEAR=1900
DGENRE=
TTITLE0=You Told Me
TTITLE1=I'll Spend My Life With You
TTITLE2=Forget That Girl
TTITLE3=Band 6
TTITLE4=You Just May Be The One
TTITLE5=Shades Of Gray
TTITLE6=I Can't Get Her Off My Mind
TTITLE7=For Pete's Sake
TTITLE8=Mr. Webster
TTITLE9=Sunny Girlfriend
TTITLE10=Zilch
TTITLE11=No Time
TTITLE12=Early Morning Blues And Greens
TTITLE13=Randy Scouse Git
TTITLE14=All Of Your Toys (Mono Mix)
TTITLE15=The Girl I Knew Somewhere (1st Recorded Version-Alternate Mon
TTITLE15=o Mix)
TTITLE16=A Little Bit Me. A Little Bit You (Mono Single Mix)
TTITLE17=She Hangs Out (Mono Single Mix)
TTITLE18=The Girl I Knew Somewhere (Mono Single Mix)
TTITLE19=Nine Times Blue (Demo Version)
TTITLE20=She'll Be There
TTITLE21=Midnight Train (Demo Version)
TTITLE22=Peter Gunn's Gun
TTITLE23=Jericho
TTITLE24=Pillow Time (Demo Version)
EXTD=
EXTT0=
EXTT1=
EXTT2=
EXTT3=
EXTT4=
EXTT5=
EXTT6=
EXTT7=
EXTT8=
EXTT9=
EXTT10=
EXTT11=
EXTT12=
EXTT13=
EXTT14=
EXTT15=
EXTT16=
EXTT17=
EXTT18=
EXTT19=
EXTT20=
EXTT21=
EXTT22=
EXTT23=
EXTT24=
PLAYORDER=
